<svg width="156" height="32" viewBox="0 0 156 32" fill="none" xmlns="http://www.w3.org/2000/svg">
<path d="M40.678 14.358C40.474 14.226 40.312 14.13 40.192 14.07C40.084 13.998 39.91 13.962 39.67 13.962C38.974 13.962 38.374 14.214 37.87 14.718C37.714 14.874 37.594 15.036 37.51 15.204V21H34.72V12H37.51V12.81C37.858 12.51 38.254 12.276 38.698 12.108C39.142 11.94 39.646 11.856 40.21 11.856C40.63 11.856 40.966 11.898 41.218 11.982C41.47 12.066 41.758 12.192 42.082 12.36L40.678 14.358ZM53.1433 17.814L46.1053 17.832C46.3093 18.18 46.5733 18.468 46.8973 18.696C47.2333 18.924 47.6173 19.038 48.0493 19.038C48.4333 19.038 48.8053 18.972 49.1653 18.84C49.5253 18.696 49.7893 18.486 49.9573 18.21L51.7573 19.812C51.2653 20.256 50.6953 20.592 50.0473 20.82C49.4113 21.036 48.7453 21.144 48.0493 21.144C47.4133 21.144 46.7893 21.048 46.1773 20.856C45.5653 20.664 45.0193 20.376 44.5393 19.992C44.0713 19.608 43.6933 19.128 43.4053 18.552C43.1173 17.976 42.9733 17.298 42.9733 16.518C42.9733 15.738 43.1173 15.06 43.4053 14.484C43.6933 13.896 44.0713 13.41 44.5393 13.026C45.0193 12.63 45.5653 12.336 46.1773 12.144C46.7893 11.952 47.4133 11.856 48.0493 11.856C48.7573 11.856 49.4173 11.964 50.0293 12.18C50.6413 12.384 51.1753 12.69 51.6313 13.098C52.0873 13.494 52.4473 13.986 52.7113 14.574C52.9753 15.15 53.1193 15.804 53.1433 16.536V17.814ZM46.4293 14.7C46.2973 14.832 46.1833 14.982 46.0873 15.15C46.0033 15.318 45.9313 15.492 45.8713 15.672H50.2453C50.1853 15.492 50.1073 15.318 50.0113 15.15C49.9273 14.982 49.8193 14.832 49.6873 14.7C49.4473 14.46 49.2013 14.28 48.9493 14.16C48.6973 14.028 48.3973 13.962 48.0493 13.962C47.7133 13.962 47.4193 14.028 47.1673 14.16C46.9153 14.28 46.6693 14.46 46.4293 14.7ZM53.8717 16.482C53.8717 15.798 53.9797 15.174 54.1957 14.61C54.4117 14.034 54.7177 13.548 55.1137 13.152C55.5097 12.744 55.9897 12.426 56.5537 12.198C57.1177 11.97 57.7417 11.856 58.4257 11.856C58.9777 11.856 59.4757 11.94 59.9197 12.108C60.3757 12.276 60.7777 12.51 61.1257 12.81V12H63.9157V21H61.1257V20.046C60.7777 20.382 60.3757 20.652 59.9197 20.856C59.4637 21.048 58.9657 21.144 58.4257 21.144C57.7417 21.144 57.1177 21.03 56.5537 20.802C55.9897 20.574 55.5097 20.256 55.1137 19.848C54.7177 19.44 54.4117 18.954 54.1957 18.39C53.9797 17.814 53.8717 17.178 53.8717 16.482ZM57.3277 14.7C57.0877 14.94 56.9137 15.216 56.8057 15.528C56.7097 15.828 56.6617 16.146 56.6617 16.482C56.6617 16.83 56.7097 17.16 56.8057 17.472C56.9137 17.784 57.0877 18.06 57.3277 18.3C57.5677 18.54 57.8137 18.726 58.0657 18.858C58.3177 18.978 58.6177 19.038 58.9657 19.038C59.3017 19.038 59.6257 18.978 59.9377 18.858C60.2497 18.726 60.5257 18.54 60.7657 18.3C60.9217 18.144 61.0417 17.982 61.1257 17.814V15.204C61.0417 15.036 60.9217 14.874 60.7657 14.718C60.2617 14.214 59.6617 13.962 58.9657 13.962C58.6177 13.962 58.3177 14.028 58.0657 14.16C57.8137 14.28 57.5677 14.46 57.3277 14.7ZM73.7107 19.884C73.2187 20.304 72.6607 20.622 72.0367 20.838C71.4127 21.042 70.7587 21.144 70.0747 21.144C69.4387 21.144 68.8147 21.048 68.2027 20.856C67.5907 20.664 67.0447 20.376 66.5647 19.992C66.0967 19.608 65.7187 19.128 65.4307 18.552C65.1427 17.976 64.9987 17.298 64.9987 16.518C64.9987 15.738 65.1427 15.06 65.4307 14.484C65.7187 13.896 66.0967 13.41 66.5647 13.026C67.0447 12.63 67.5907 12.336 68.2027 12.144C68.8147 11.952 69.4387 11.856 70.0747 11.856C70.7227 11.856 71.3467 11.952 71.9467 12.144C72.5467 12.324 73.0867 12.606 73.5667 12.99L71.8747 14.682C71.6347 14.454 71.3587 14.28 71.0467 14.16C70.7347 14.028 70.4107 13.962 70.0747 13.962C69.7387 13.962 69.4447 14.028 69.1927 14.16C68.9407 14.28 68.6947 14.46 68.4547 14.7C68.2147 14.94 68.0407 15.216 67.9327 15.528C67.8367 15.84 67.7887 16.17 67.7887 16.518C67.7887 16.854 67.8367 17.172 67.9327 17.472C68.0407 17.772 68.2147 18.042 68.4547 18.282C68.6947 18.522 68.9407 18.708 69.1927 18.84C69.4447 18.972 69.7387 19.038 70.0747 19.038C70.4227 19.038 70.7527 18.978 71.0647 18.858C71.3767 18.726 71.6527 18.54 71.8927 18.3L71.9467 18.246L73.7107 19.884ZM80.3961 14.178H78.2721V21H75.4821V14.178H74.6181V12L78.2721 8.778V12H80.3961V14.178ZM80.942 16.482C80.942 15.798 81.05 15.174 81.266 14.61C81.482 14.034 81.788 13.548 82.184 13.152C82.58 12.744 83.06 12.426 83.624 12.198C84.188 11.97 84.812 11.856 85.496 11.856C86.048 11.856 86.546 11.94 86.99 12.108C87.446 12.276 87.848 12.51 88.196 12.81V8.382H90.986V21H88.196V20.046C87.848 20.382 87.446 20.652 86.99 20.856C86.534 21.048 86.036 21.144 85.496 21.144C84.812 21.144 84.188 21.03 83.624 20.802C83.06 20.574 82.58 20.256 82.184 19.848C81.788 19.44 81.482 18.954 81.266 18.39C81.05 17.814 80.942 17.178 80.942 16.482ZM84.398 14.7C84.158 14.94 83.984 15.216 83.876 15.528C83.78 15.828 83.732 16.146 83.732 16.482C83.732 16.83 83.78 17.16 83.876 17.472C83.984 17.784 84.158 18.06 84.398 18.3C84.638 18.54 84.884 18.726 85.136 18.858C85.388 18.978 85.688 19.038 86.036 19.038C86.372 19.038 86.696 18.978 87.008 18.858C87.32 18.726 87.596 18.54 87.836 18.3C87.992 18.144 88.112 17.982 88.196 17.814V15.204C88.112 15.036 87.992 14.874 87.836 14.718C87.332 14.214 86.732 13.962 86.036 13.962C85.688 13.962 85.388 14.028 85.136 14.16C84.884 14.28 84.638 14.46 84.398 14.7ZM92.069 16.482C92.069 15.798 92.177 15.174 92.393 14.61C92.609 14.034 92.915 13.548 93.311 13.152C93.707 12.744 94.187 12.426 94.751 12.198C95.315 11.97 95.939 11.856 96.623 11.856C97.175 11.856 97.673 11.94 98.117 12.108C98.573 12.276 98.975 12.51 99.323 12.81V12H102.113V21H99.323V20.046C98.975 20.382 98.573 20.652 98.117 20.856C97.661 21.048 97.163 21.144 96.623 21.144C95.939 21.144 95.315 21.03 94.751 20.802C94.187 20.574 93.707 20.256 93.311 19.848C92.915 19.44 92.609 18.954 92.393 18.39C92.177 17.814 92.069 17.178 92.069 16.482ZM95.525 14.7C95.285 14.94 95.111 15.216 95.003 15.528C94.907 15.828 94.859 16.146 94.859 16.482C94.859 16.83 94.907 17.16 95.003 17.472C95.111 17.784 95.285 18.06 95.525 18.3C95.765 18.54 96.011 18.726 96.263 18.858C96.515 18.978 96.815 19.038 97.163 19.038C97.499 19.038 97.823 18.978 98.135 18.858C98.447 18.726 98.723 18.54 98.963 18.3C99.119 18.144 99.239 17.982 99.323 17.814V15.204C99.239 15.036 99.119 14.874 98.963 14.718C98.459 14.214 97.859 13.962 97.163 13.962C96.815 13.962 96.515 14.028 96.263 14.16C96.011 14.28 95.765 14.46 95.525 14.7ZM109.154 14.178H107.03V21H104.24V14.178H103.376V12L107.03 8.778V12H109.154V14.178ZM109.7 16.482C109.7 15.798 109.808 15.174 110.024 14.61C110.24 14.034 110.546 13.548 110.942 13.152C111.338 12.744 111.818 12.426 112.382 12.198C112.946 11.97 113.57 11.856 114.254 11.856C114.806 11.856 115.304 11.94 115.748 12.108C116.204 12.276 116.606 12.51 116.954 12.81V12H119.744V21H116.954V20.046C116.606 20.382 116.204 20.652 115.748 20.856C115.292 21.048 114.794 21.144 114.254 21.144C113.57 21.144 112.946 21.03 112.382 20.802C111.818 20.574 111.338 20.256 110.942 19.848C110.546 19.44 110.24 18.954 110.024 18.39C109.808 17.814 109.7 17.178 109.7 16.482ZM113.156 14.7C112.916 14.94 112.742 15.216 112.634 15.528C112.538 15.828 112.49 16.146 112.49 16.482C112.49 16.83 112.538 17.16 112.634 17.472C112.742 17.784 112.916 18.06 113.156 18.3C113.396 18.54 113.642 18.726 113.894 18.858C114.146 18.978 114.446 19.038 114.794 19.038C115.13 19.038 115.454 18.978 115.766 18.858C116.078 18.726 116.354 18.54 116.594 18.3C116.75 18.144 116.87 17.982 116.954 17.814V15.204C116.87 15.036 116.75 14.874 116.594 14.718C116.09 14.214 115.49 13.962 114.794 13.962C114.446 13.962 114.146 14.028 113.894 14.16C113.642 14.28 113.396 14.46 113.156 14.7ZM124.607 22.44C124.727 22.8 124.937 23.094 125.237 23.322C125.537 23.562 125.891 23.682 126.299 23.682C126.551 23.682 126.785 23.634 127.001 23.538C127.217 23.442 127.403 23.31 127.559 23.142C127.727 22.974 127.853 22.776 127.937 22.548C128.033 22.332 128.081 22.098 128.081 21.846V20.19C127.733 20.502 127.331 20.742 126.875 20.91C126.431 21.066 125.933 21.144 125.381 21.144C124.697 21.144 124.073 21.03 123.509 20.802C122.945 20.574 122.465 20.262 122.069 19.866C121.673 19.458 121.367 18.972 121.151 18.408C120.935 17.832 120.827 17.202 120.827 16.518C120.827 15.822 120.935 15.192 121.151 14.628C121.367 14.052 121.673 13.56 122.069 13.152C122.465 12.744 122.945 12.426 123.509 12.198C124.073 11.97 124.697 11.856 125.381 11.856C125.921 11.856 126.419 11.958 126.875 12.162C127.331 12.354 127.733 12.624 128.081 12.972V12H130.871V21.846C130.871 22.458 130.745 23.04 130.493 23.592C130.253 24.144 129.923 24.63 129.503 25.05C129.071 25.482 128.579 25.812 128.027 26.04C127.487 26.268 126.911 26.382 126.299 26.382C125.687 26.382 125.105 26.268 124.553 26.04C124.013 25.812 123.527 25.482 123.095 25.05C122.927 24.882 122.771 24.696 122.627 24.492C122.483 24.288 122.351 24.078 122.231 23.862L124.607 22.44ZM124.283 18.3C124.523 18.54 124.769 18.726 125.021 18.858C125.273 18.978 125.573 19.038 125.921 19.038C126.617 19.038 127.217 18.786 127.721 18.282C127.877 18.126 127.997 17.964 128.081 17.796V15.186C127.997 15.018 127.877 14.856 127.721 14.7C127.481 14.46 127.205 14.28 126.893 14.16C126.581 14.028 126.257 13.962 125.921 13.962C125.573 13.962 125.273 14.028 125.021 14.16C124.769 14.28 124.523 14.46 124.283 14.7C124.043 14.94 123.869 15.216 123.761 15.528C123.665 15.84 123.617 16.17 123.617 16.518C123.617 16.854 123.665 17.178 123.761 17.49C123.869 17.79 124.043 18.06 124.283 18.3ZM138.272 14.358C138.068 14.226 137.906 14.13 137.786 14.07C137.678 13.998 137.504 13.962 137.264 13.962C136.568 13.962 135.968 14.214 135.464 14.718C135.308 14.874 135.188 15.036 135.104 15.204V21H132.314V12H135.104V12.81C135.452 12.51 135.848 12.276 136.292 12.108C136.736 11.94 137.24 11.856 137.804 11.856C138.224 11.856 138.56 11.898 138.812 11.982C139.064 12.066 139.352 12.192 139.676 12.36L138.272 14.358ZM140.927 12.018H143.717V21H140.927V12.018ZM142.331 11.352C142.139 11.352 141.953 11.316 141.773 11.244C141.605 11.172 141.455 11.076 141.323 10.956C141.203 10.824 141.107 10.674 141.035 10.506C140.963 10.338 140.927 10.158 140.927 9.966C140.927 9.582 141.065 9.252 141.341 8.976C141.617 8.7 141.947 8.562 142.331 8.562C142.715 8.562 143.039 8.7 143.303 8.976C143.579 9.252 143.717 9.582 143.717 9.966C143.717 10.35 143.579 10.68 143.303 10.956C143.039 11.22 142.715 11.352 142.331 11.352ZM144.803 16.482C144.803 15.798 144.911 15.174 145.127 14.61C145.343 14.034 145.649 13.548 146.045 13.152C146.441 12.744 146.921 12.426 147.485 12.198C148.049 11.97 148.673 11.856 149.357 11.856C149.909 11.856 150.407 11.94 150.851 12.108C151.307 12.276 151.709 12.51 152.057 12.81V8.382H154.847V21H152.057V20.046C151.709 20.382 151.307 20.652 150.851 20.856C150.395 21.048 149.897 21.144 149.357 21.144C148.673 21.144 148.049 21.03 147.485 20.802C146.921 20.574 146.441 20.256 146.045 19.848C145.649 19.44 145.343 18.954 145.127 18.39C144.911 17.814 144.803 17.178 144.803 16.482ZM148.259 14.7C148.019 14.94 147.845 15.216 147.737 15.528C147.641 15.828 147.593 16.146 147.593 16.482C147.593 16.83 147.641 17.16 147.737 17.472C147.845 17.784 148.019 18.06 148.259 18.3C148.499 18.54 148.745 18.726 148.997 18.858C149.249 18.978 149.549 19.038 149.897 19.038C150.233 19.038 150.557 18.978 150.869 18.858C151.181 18.726 151.457 18.54 151.697 18.3C151.853 18.144 151.973 17.982 152.057 17.814V15.204C151.973 15.036 151.853 14.874 151.697 14.718C151.193 14.214 150.593 13.962 149.897 13.962C149.549 13.962 149.249 14.028 148.997 14.16C148.745 14.28 148.499 14.46 148.259 14.7Z" fill="#1C2541"/>
<path d="M4.95414 20.4266C2.49419 17.9666 2.49419 13.9782 4.95415 11.5183C5.26164 11.2108 5.76019 11.2108 6.06768 11.5183L15.0261 20.4767C15.4166 20.8672 15.4166 21.5003 15.0261 21.8909L11.4294 25.4876C11.0389 25.8781 10.4057 25.8781 10.0152 25.4876L4.95414 20.4266Z" fill="#FF595E"/>
<path d="M16.918 11.9681C16.5275 11.5776 16.5275 10.9444 16.918 10.5539L20.5147 6.95718C20.9053 6.56665 21.5384 6.56665 21.929 6.95718L26.99 12.0182C29.4499 14.4782 29.4499 18.4665 26.99 20.9265C26.6825 21.234 26.1839 21.234 25.8764 20.9265L16.918 11.9681Z" fill="#8AC926"/>
<path d="M11.7686 14.9259C11.3781 15.3165 10.7449 15.3165 10.3544 14.9259L6.6575 11.229C6.26697 10.8385 6.26697 10.2053 6.6575 9.81482L11.429 5.04332C13.9381 2.53417 18.0063 2.53416 20.5155 5.04332C20.8291 5.35697 20.8291 5.86548 20.5154 6.17913L11.7686 14.9259Z" fill="#1982C4"/>
<path d="M20.5159 27.4015C18.0067 29.9106 13.9386 29.9106 11.4294 27.4015C11.1158 27.0878 11.1158 26.5793 11.4294 26.2657L20.1762 17.5188C20.5668 17.1283 21.1999 17.1283 21.5905 17.5188L25.2874 21.2158C25.6779 21.6063 25.6779 22.2395 25.2874 22.63L20.5159 27.4015Z" fill="#6A4C93"/>
</svg>
